<svg xmlns="http://www.w3.org/2000/svg" width="300" height="300" viewBox="0 0 410 410" shape-rendering="crispEdges"><rect width="100%" height="100%" fill="#fff"/><g fill="#000"><rect x="40" y="40" width="70" height="10"/><rect x="120" y="40" width="110" height="10"/><rect x="240" y="40" width="10" height="10"/><rect x="270" y="40" width="10" height="10"/><rect x="300" y="40" width="70" height="10"/><rect x="40" y="50" width="10" height="10"/><rect x="100" y="50" width="10" height="10"/><rect x="120" y="50" width="10" height="10"/><rect x="140" y="50" width="40" height="10"/><rect x="200" y="50" width="10" height="10"/><rect x="220" y="50" width="10" height="10"/><rect x="250" y="50" width="40" height="10"/><rect x="300" y="50" width="10" height="10"/><rect x="360" y="50" width="10" height="10"/><rect x="40" y="60" width="10" height="10"/><rect x="60" y="60" width="30" height="10"/><rect x="100" y="60" width="10" height="10"/><rect x="130" y="60" width="20" height="10"/><rect x="160" y="60" width="10" height="10"/><rect x="190" y="60" width="10" height="10"/><rect x="210" y="60" width="10" height="10"/><rect x="240" y="60" width="10" height="10"/><rect x="270" y="60" width="10" height="10"/><rect x="300" y="60" width="10" height="10"/><rect x="320" y="60" width="30" height="10"/><rect x="360" y="60" width="10" height="10"/><rect x="40" y="70" width="10" height="10"/><rect x="60" y="70" width="30" height="10"/><rect x="100" y="70" width="10" height="10"/><rect x="120" y="70" width="10" height="10"/><rect x="140" y="70" width="20" height="10"/><rect x="180" y="70" width="30" height="10"/><rect x="230" y="70" width="20" height="10"/><rect x="260" y="70" width="10" height="10"/><rect x="300" y="70" width="10" height="10"/><rect x="320" y="70" width="30" height="10"/><rect x="360" y="70" width="10" height="10"/><rect x="40" y="80" width="10" height="10"/><rect x="60" y="80" width="30" height="10"/><rect x="100" y="80" width="10" height="10"/><rect x="140" y="80" width="10" height="10"/><rect x="160" y="80" width="10" height="10"/><rect x="180" y="80" width="10" height="10"/><rect x="240" y="80" width="30" height="10"/><rect x="300" y="80" width="10" height="10"/><rect x="320" y="80" width="30" height="10"/><rect x="360" y="80" width="10" height="10"/><rect x="40" y="90" width="10" height="10"/><rect x="100" y="90" width="10" height="10"/><rect x="140" y="90" width="20" height="10"/><rect x="220" y="90" width="30" height="10"/><rect x="260" y="90" width="10" height="10"/><rect x="280" y="90" width="10" height="10"/><rect x="300" y="90" width="10" height="10"/><rect x="360" y="90" width="10" height="10"/><rect x="40" y="100" width="70" height="10"/><rect x="120" y="100" width="10" height="10"/><rect x="140" y="100" width="10" height="10"/><rect x="160" y="100" width="10" height="10"/><rect x="180" y="100" width="10" height="10"/><rect x="200" y="100" width="10" height="10"/><rect x="220" y="100" width="10" height="10"/><rect x="240" y="100" width="10" height="10"/><rect x="260" y="100" width="10" height="10"/><rect x="280" y="100" width="10" height="10"/><rect x="300" y="100" width="70" height="10"/><rect x="120" y="110" width="40" height="10"/><rect x="180" y="110" width="10" height="10"/><rect x="210" y="110" width="20" height="10"/><rect x="240" y="110" width="10" height="10"/><rect x="280" y="110" width="10" height="10"/><rect x="40" y="120" width="10" height="10"/><rect x="60" y="120" width="20" height="10"/><rect x="90" y="120" width="30" height="10"/><rect x="150" y="120" width="20" height="10"/><rect x="180" y="120" width="10" height="10"/><rect x="220" y="120" width="20" height="10"/><rect x="250" y="120" width="10" height="10"/><rect x="300" y="120" width="10" height="10"/><rect x="330" y="120" width="10" height="10"/><rect x="350" y="120" width="20" height="10"/><rect x="40" y="130" width="20" height="10"/><rect x="70" y="130" width="10" height="10"/><rect x="120" y="130" width="50" height="10"/><rect x="180" y="130" width="10" height="10"/><rect x="200" y="130" width="10" height="10"/><rect x="220" y="130" width="20" height="10"/><rect x="250" y="130" width="10" height="10"/><rect x="270" y="130" width="10" height="10"/><rect x="300" y="130" width="20" height="10"/><rect x="330" y="130" width="40" height="10"/><rect x="40" y="140" width="10" height="10"/><rect x="60" y="140" width="10" height="10"/><rect x="80" y="140" width="10" height="10"/><rect x="100" y="140" width="10" height="10"/><rect x="120" y="140" width="10" height="10"/><rect x="140" y="140" width="30" height="10"/><rect x="180" y="140" width="10" height="10"/><rect x="200" y="140" width="20" height="10"/><rect x="250" y="140" width="10" height="10"/><rect x="270" y="140" width="20" height="10"/><rect x="310" y="140" width="30" height="10"/><rect x="360" y="140" width="10" height="10"/><rect x="60" y="150" width="10" height="10"/><rect x="140" y="150" width="10" height="10"/><rect x="170" y="150" width="40" height="10"/><rect x="220" y="150" width="30" height="10"/><rect x="280" y="150" width="10" height="10"/><rect x="310" y="150" width="10" height="10"/><rect x="330" y="150" width="10" height="10"/><rect x="350" y="150" width="10" height="10"/><rect x="70" y="160" width="10" height="10"/><rect x="90" y="160" width="20" height="10"/><rect x="130" y="160" width="10" height="10"/><rect x="150" y="160" width="10" height="10"/><rect x="220" y="160" width="20" height="10"/><rect x="290" y="160" width="10" height="10"/><rect x="330" y="160" width="10" height="10"/><rect x="360" y="160" width="10" height="10"/><rect x="60" y="170" width="10" height="10"/><rect x="120" y="170" width="50" height="10"/><rect x="200" y="170" width="10" height="10"/><rect x="220" y="170" width="10" height="10"/><rect x="260" y="170" width="10" height="10"/><rect x="280" y="170" width="10" height="10"/><rect x="300" y="170" width="20" height="10"/><rect x="350" y="170" width="10" height="10"/><rect x="40" y="180" width="20" height="10"/><rect x="80" y="180" width="10" height="10"/><rect x="100" y="180" width="50" height="10"/><rect x="190" y="180" width="20" height="10"/><rect x="220" y="180" width="10" height="10"/><rect x="260" y="180" width="10" height="10"/><rect x="300" y="180" width="30" height="10"/><rect x="40" y="190" width="10" height="10"/><rect x="70" y="190" width="10" height="10"/><rect x="110" y="190" width="10" height="10"/><rect x="140" y="190" width="20" height="10"/><rect x="170" y="190" width="20" height="10"/><rect x="200" y="190" width="10" height="10"/><rect x="220" y="190" width="50" height="10"/><rect x="290" y="190" width="30" height="10"/><rect x="330" y="190" width="20" height="10"/><rect x="60" y="200" width="10" height="10"/><rect x="100" y="200" width="30" height="10"/><rect x="140" y="200" width="10" height="10"/><rect x="160" y="200" width="40" height="10"/><rect x="210" y="200" width="60" height="10"/><rect x="290" y="200" width="20" height="10"/><rect x="320" y="200" width="20" height="10"/><rect x="40" y="210" width="10" height="10"/><rect x="60" y="210" width="20" height="10"/><rect x="120" y="210" width="10" height="10"/><rect x="150" y="210" width="50" height="10"/><rect x="210" y="210" width="10" height="10"/><rect x="240" y="210" width="20" height="10"/><rect x="270" y="210" width="20" height="10"/><rect x="300" y="210" width="10" height="10"/><rect x="320" y="210" width="20" height="10"/><rect x="360" y="210" width="10" height="10"/><rect x="40" y="220" width="40" height="10"/><rect x="100" y="220" width="10" height="10"/><rect x="130" y="220" width="10" height="10"/><rect x="150" y="220" width="30" height="10"/><rect x="190" y="220" width="30" height="10"/><rect x="240" y="220" width="30" height="10"/><rect x="310" y="220" width="20" height="10"/><rect x="340" y="220" width="20" height="10"/><rect x="40" y="230" width="20" height="10"/><rect x="80" y="230" width="20" height="10"/><rect x="110" y="230" width="20" height="10"/><rect x="140" y="230" width="10" height="10"/><rect x="160" y="230" width="20" height="10"/><rect x="230" y="230" width="10" height="10"/><rect x="260" y="230" width="10" height="10"/><rect x="280" y="230" width="30" height="10"/><rect x="320" y="230" width="10" height="10"/><rect x="40" y="240" width="20" height="10"/><rect x="80" y="240" width="50" height="10"/><rect x="160" y="240" width="10" height="10"/><rect x="180" y="240" width="10" height="10"/><rect x="220" y="240" width="10" height="10"/><rect x="240" y="240" width="30" height="10"/><rect x="310" y="240" width="10" height="10"/><rect x="330" y="240" width="20" height="10"/><rect x="40" y="250" width="20" height="10"/><rect x="70" y="250" width="10" height="10"/><rect x="110" y="250" width="30" height="10"/><rect x="160" y="250" width="40" height="10"/><rect x="220" y="250" width="10" height="10"/><rect x="250" y="250" width="20" height="10"/><rect x="290" y="250" width="10" height="10"/><rect x="310" y="250" width="10" height="10"/><rect x="330" y="250" width="10" height="10"/><rect x="360" y="250" width="10" height="10"/><rect x="70" y="260" width="10" height="10"/><rect x="100" y="260" width="30" height="10"/><rect x="170" y="260" width="10" height="10"/><rect x="200" y="260" width="10" height="10"/><rect x="260" y="260" width="70" height="10"/><rect x="340" y="260" width="30" height="10"/><rect x="50" y="270" width="50" height="10"/><rect x="110" y="270" width="40" height="10"/><rect x="180" y="270" width="10" height="10"/><rect x="200" y="270" width="10" height="10"/><rect x="230" y="270" width="10" height="10"/><rect x="260" y="270" width="10" height="10"/><rect x="280" y="270" width="10" height="10"/><rect x="320" y="270" width="20" height="10"/><rect x="350" y="270" width="10" height="10"/><rect x="40" y="280" width="10" height="10"/><rect x="60" y="280" width="30" height="10"/><rect x="100" y="280" width="20" height="10"/><rect x="140" y="280" width="30" height="10"/><rect x="190" y="280" width="40" height="10"/><rect x="280" y="280" width="50" height="10"/><rect x="120" y="290" width="30" height="10"/><rect x="190" y="290" width="50" height="10"/><rect x="280" y="290" width="10" height="10"/><rect x="320" y="290" width="20" height="10"/><rect x="360" y="290" width="10" height="10"/><rect x="40" y="300" width="70" height="10"/><rect x="120" y="300" width="20" height="10"/><rect x="150" y="300" width="10" height="10"/><rect x="170" y="300" width="20" height="10"/><rect x="200" y="300" width="10" height="10"/><rect x="230" y="300" width="60" height="10"/><rect x="300" y="300" width="10" height="10"/><rect x="320" y="300" width="10" height="10"/><rect x="40" y="310" width="10" height="10"/><rect x="100" y="310" width="10" height="10"/><rect x="120" y="310" width="10" height="10"/><rect x="140" y="310" width="30" height="10"/><rect x="230" y="310" width="10" height="10"/><rect x="250" y="310" width="10" height="10"/><rect x="270" y="310" width="20" height="10"/><rect x="320" y="310" width="40" height="10"/><rect x="40" y="320" width="10" height="10"/><rect x="60" y="320" width="30" height="10"/><rect x="100" y="320" width="10" height="10"/><rect x="130" y="320" width="10" height="10"/><rect x="160" y="320" width="10" height="10"/><rect x="180" y="320" width="10" height="10"/><rect x="210" y="320" width="10" height="10"/><rect x="240" y="320" width="10" height="10"/><rect x="270" y="320" width="60" height="10"/><rect x="340" y="320" width="10" height="10"/><rect x="360" y="320" width="10" height="10"/><rect x="40" y="330" width="10" height="10"/><rect x="60" y="330" width="30" height="10"/><rect x="100" y="330" width="10" height="10"/><rect x="120" y="330" width="20" height="10"/><rect x="150" y="330" width="20" height="10"/><rect x="220" y="330" width="50" height="10"/><rect x="280" y="330" width="20" height="10"/><rect x="310" y="330" width="10" height="10"/><rect x="330" y="330" width="20" height="10"/><rect x="360" y="330" width="10" height="10"/><rect x="40" y="340" width="10" height="10"/><rect x="60" y="340" width="30" height="10"/><rect x="100" y="340" width="10" height="10"/><rect x="120" y="340" width="10" height="10"/><rect x="140" y="340" width="50" height="10"/><rect x="230" y="340" width="10" height="10"/><rect x="260" y="340" width="20" height="10"/><rect x="300" y="340" width="20" height="10"/><rect x="340" y="340" width="10" height="10"/><rect x="40" y="350" width="10" height="10"/><rect x="100" y="350" width="10" height="10"/><rect x="130" y="350" width="10" height="10"/><rect x="150" y="350" width="30" height="10"/><rect x="190" y="350" width="30" height="10"/><rect x="230" y="350" width="10" height="10"/><rect x="270" y="350" width="10" height="10"/><rect x="300" y="350" width="30" height="10"/><rect x="360" y="350" width="10" height="10"/><rect x="40" y="360" width="70" height="10"/><rect x="120" y="360" width="20" height="10"/><rect x="150" y="360" width="10" height="10"/><rect x="170" y="360" width="60" height="10"/><rect x="250" y="360" width="10" height="10"/><rect x="270" y="360" width="10" height="10"/><rect x="300" y="360" width="10" height="10"/><rect x="320" y="360" width="10" height="10"/><rect x="340" y="360" width="10" height="10"/></g></svg>