<svg xmlns="http://www.w3.org/2000/svg" style="font-family:'Noto Sans SC','Microsoft YaHei','PingFang SC',sans-serif" viewBox="0 0 1080 1350" role="img" aria-labelledby="title desc">
<title id="title">04 敏捷的豹：提效率</title>
<desc id="desc">2026年8月7日团队沟通与协作话术，敏捷的豹</desc>
<defs>
  <linearGradient id="bg04" x1="0" y1="0" x2="1" y2="1"><stop offset="0" stop-color="#57401f"/><stop offset="1" stop-color="#916a2f"/></linearGradient>
  <filter id="shadow04"><feDropShadow dx="0" dy="12" stdDeviation="18" flood-color="#000" flood-opacity=".18"/></filter>
</defs>
<rect width="1080" height="1350" fill="#f8f5ec"/>
<rect x="0" y="0" width="1080" height="620" fill="url(#bg04)"/>
<circle cx="910" cy="95" r="185" fill="#fff" opacity=".06"/>
<text x="70" y="72" fill="#fff" font-size="26" font-weight="700">8月7日简报｜团队沟通与协作话术</text>
<text x="1010" y="72" fill="#fff" font-size="24" font-weight="700" text-anchor="end">QilyLean｜启力精益</text>
<text x="76" y="178" fill="#f0cf78" font-size="96" font-weight="900">04</text>
<text x="250" y="175" fill="#fff" font-size="56" font-weight="900">敏捷的豹</text>
<text x="250" y="228" fill="#fff" opacity=".93" font-size="31" font-weight="700">反应快，效率高，抓细节</text>
<g transform="translate(540 390)">
          <circle r="160" fill="#f0cf78" opacity=".12"/>
          <path d="M-130-116 L-94-55 Q-143 4-105 99 Q-55 166 0 175 Q55 166 105 99 Q143 4 94-55 L130-116 L52-91 Q0-126-52-91Z" fill="#f0cf78" opacity=".96"/>
          <path d="M-70-28 Q-38-50-15-20M70-28 Q38-50 15-20" fill="none" stroke="#57401f" stroke-width="16" stroke-linecap="round"/>
          <circle cx="-43" cy="-7" r="10" fill="#57401f"/><circle cx="43" cy="-7" r="10" fill="#57401f"/>
          <path d="M0 17 l-22 25 h44z" fill="#57401f"/><path d="M0 42 Q-28 75-52 55M0 42 Q28 75 52 55" fill="none" stroke="#57401f" stroke-width="10" stroke-linecap="round"/>
          <g fill="#57401f" opacity=".75"><circle cx="-85" cy="-75" r="13"/><circle cx="82" cy="-78" r="13"/><circle cx="-105" cy="5" r="12"/><circle cx="106" cy="7" r="12"/><circle cx="-83" cy="75" r="11"/><circle cx="83" cy="75" r="11"/><circle cx="-40" cy="110" r="10"/><circle cx="40" cy="110" r="10"/></g>
          <path d="M-245-45 H-175M-270 5 H-185M-245 55 H-175" stroke="#f0cf78" stroke-width="15" stroke-linecap="round"/>
        </g>
<rect x="70" y="655" width="940" height="185" rx="26" fill="#fff" filter="url(#shadow04)"/>
<rect x="95" y="685" width="132" height="44" rx="22" fill="#57401f"/>
<text x="161" y="716" fill="#fff" font-size="25" font-weight="800" text-anchor="middle">角色价值</text>
<text x="155" y="760" fill="#263f38" font-size="31" font-weight="560" text-anchor="start"><tspan x="155" dy="0">快速响应变化，优化流程，</tspan><tspan x="155" dy="46">提升团队整体效率。</tspan></text>
<rect x="70" y="865" width="940" height="245" rx="26" fill="#fff" filter="url(#shadow04)"/>
<rect x="95" y="893" width="132" height="44" rx="22" fill="#57401f"/>
<text x="161" y="924" fill="#fff" font-size="25" font-weight="800" text-anchor="middle">沟通话术</text>
<text x="155" y="975" fill="#153a32" font-size="29" font-weight="620" text-anchor="start"><tspan x="155" dy="0">• 这个流程可以更快更稳，我们试试优化！</tspan><tspan x="155" dy="47">• 细节决定成败，再检查一遍。</tspan><tspan x="155" dy="47">• 马上调整，让协作更高效。</tspan></text>
<rect x="70" y="1145" width="940" height="145" rx="26" fill="url(#bg04)"/>
<text x="115" y="1191" fill="#f0cf78" font-size="26" font-weight="850">使用要点｜提效率</text>
<text x="155" y="1235" fill="#ffffff" font-size="28" font-weight="650" text-anchor="start"><tspan x="155" dy="0">给予试验与改善空间，</tspan><tspan x="155" dy="42">用数据验证，让流程更顺畅。</tspan></text>
<line x1="70" y1="1320" x2="1010" y2="1320" stroke="#57401f" opacity=".25"/>
<text x="70" y="1339" fill="#57401f" font-size="20" font-weight="700">虎定方向｜鹰看未来｜狼打胜仗｜豹提效率｜狗守底线</text>
<text x="1010" y="1339" fill="#57401f" font-size="20" font-weight="700" text-anchor="end">qilylean.com</text>
</svg>